<svg xmlns="http://www.w3.org/2000/svg" width="4096" height="4096" viewBox="0 0 4096 4096">
  <g id="Grupo_42" data-name="Grupo 42" transform="translate(-509 -6196)">
    <g id="Retângulo_133" data-name="Retângulo 133" transform="translate(509 6196)" fill="#1f2c48" stroke="#707070" stroke-width="1">
      <rect width="4096" height="4096" stroke="none"/>
      <rect x="0.5" y="0.5" width="4095" height="4095" fill="none"/>
    </g>
    <g id="Componente_49_1" data-name="Componente 49 – 1" transform="translate(1416.206 7331)">
      <g id="conversation" transform="translate(452.791 231.194)">
        <path id="Caminho_357" data-name="Caminho 357" d="M1399.1,404.96c0-98.173-47.49-189.514-133.721-257.191C1183.073,83.172,1074.315,47.6,959.135,47.6S735.187,83.172,652.884,147.769a388.443,388.443,0,0,0-59.488,57.7,533.967,533.967,0,0,0-153.426-22.27c-115.18,0-223.938,35.576-306.245,100.173C47.49,351.044,0,442.373,0,540.546c0,97.762,48.218,189.947,133.359,256.885L93.385,964.437c-4.04,16.86,1.605,34.709,14.315,45.315a37.815,37.815,0,0,0,24.271,8.953,37.353,37.353,0,0,0,19.689-5.658l198.4-122.576a545.309,545.309,0,0,0,89.909,7.433c115.185,0,223.948-35.57,306.251-100.161a385.911,385.911,0,0,0,59.418-57.649A535.079,535.079,0,0,0,959.13,762.312a545.829,545.829,0,0,0,89.909-7.433l198.407,122.576a37.354,37.354,0,0,0,19.689,5.659,37.779,37.779,0,0,0,24.271-8.959c12.715-10.6,18.349-28.455,14.31-45.315l-39.974-167C1350.883,594.9,1399.1,502.711,1399.1,404.96ZM1199,606.184c-14.825,10.017-21.938,29.368-17.537,47.742l23.331,97.45L1076.138,671.9a37.394,37.394,0,0,0-19.694-5.664,36.542,36.542,0,0,0-7.07.688,470.887,470.887,0,0,1-90.239,8.681c-198.641,0-360.242-121.414-360.242-270.647S760.494,134.3,959.135,134.29s360.237,121.42,360.237,270.664C1319.366,481.151,1275.491,554.5,1199,606.184Z" transform="translate(0 -47.596)" fill="#779dff" stroke="#fff" stroke-width="5"/>
      </g>
      <text id="V" transform="translate(544.794 946)" fill="#d2d2d2" stroke="#fff" stroke-width="5" font-size="1000" font-family="ArialRoundedMTBold, Arial Rounded MT"><tspan x="0" y="0">V</tspan></text>
      <text id="L" transform="translate(1403.794 1196)" fill="#779dff" stroke="#fff" stroke-width="5" font-size="978" font-family="ArialRoundedMTBold, Arial Rounded MT"><tspan x="-295.358" y="0">L</tspan></text>
      <g id="Grupo_37" data-name="Grupo 37" transform="translate(-889 -6954.39)">
        <path id="Caminho_363" data-name="Caminho 363" d="M413.572,592.147c63.332-40.515,105.06-109.163,105.06-186.878,0-124.233-106.621-225.3-237.68-225.3S43.272,281.037,43.272,405.27c0,77.715,41.728,146.363,105.06,186.878-67.67,18.3-117.38,77.4-117.38,147.344v268.321c0,12.237,10.465,22.157,23.374,22.157H507.578c12.909,0,23.374-9.92,23.374-22.157V739.491C530.952,669.552,481.246,610.449,413.572,592.147Zm-78.725,69.07L306.458,630.57h56.778Zm-90.6-30.647,56.335,60.813-52.736,37.289-25.425-98.1Zm172.26,9.658q4.46,1.914,8.714,4.16L416.9,725.172l-47.783-33.788ZM90.021,405.27c0-99.8,85.65-180.987,190.931-180.987S471.883,305.472,471.883,405.27s-85.65,180.987-190.931,180.987S90.021,505.068,90.021,405.27ZM77.7,739.491c0-54.261,42.08-99.373,96.929-107.58L210.86,771.7a22.627,22.627,0,0,0,14.8,15.569,24.465,24.465,0,0,0,21.869-3.093l63.94-45.212V985.655H193.114V766.017c0-12.237-10.465-22.157-23.374-22.157s-23.374,9.92-23.374,22.157V985.655H77.7ZM484.2,985.655H358.225V738.965l63.94,45.212a24.46,24.46,0,0,0,23.427,2.5A22.279,22.279,0,0,0,459.4,768.567l8.711-84.581a104.01,104.01,0,0,1,16.091,55.5V985.655Z" transform="translate(858.048 7751)" fill="#779dff" stroke="#fff" stroke-width="1"/>
        <path id="Caminho_364" data-name="Caminho 364" d="M172.759,396.857a17.927,17.927,0,1,0-5.737,21.154,18.082,18.082,0,0,0,5.737-21.154C172.3,395.782,173.216,397.933,172.759,396.857Z" transform="translate(1095.671 8174.432)" fill="#779dff" stroke="#fff" stroke-width="1"/>
        <path id="Caminho_365" data-name="Caminho 365" d="M128.522,248.71a17.926,17.926,0,1,0-6.97,21.986,18.1,18.1,0,0,0,6.97-21.986C128.068,247.637,128.976,249.788,128.522,248.71Z" transform="translate(996.376 7865.496)" fill="#779dff" stroke="#fff" stroke-width="1"/>
        <path id="Caminho_366" data-name="Caminho 366" d="M144.469,262.41a17.919,17.919,0,1,0,6.021-21.367,18.109,18.109,0,0,0-6.021,21.367C144.921,263.483,144.015,261.311,144.469,262.41Z" transform="translate(1103.863 7865.528)" fill="#779dff" stroke="#fff" stroke-width="1"/>
      </g>
      <g id="Grupo_36" data-name="Grupo 36" transform="translate(-95.206 -6954)">
        <path id="Caminho_370" data-name="Caminho 370" d="M658.925,592.147c63.332-40.515,105.059-109.163,105.059-186.878,0-124.233-106.621-225.3-237.679-225.3S288.624,281.037,288.624,405.27c0,77.715,41.728,146.363,105.059,186.878-67.673,18.3-117.379,77.4-117.379,147.344v268.321c0,12.236,10.462,22.157,23.374,22.157H752.93c12.912,0,23.374-9.921,23.374-22.157V739.491C776.3,669.552,726.6,610.449,658.925,592.147ZM609.639,630.57c-17.758,26.52-48.964,43.578-83.34,43.578s-65.579-17.058-83.34-43.578ZM335.375,405.27c0-99.8,85.649-180.987,190.933-180.987s190.93,81.189,190.93,180.987-85.65,180.987-190.93,180.987S335.375,505.067,335.375,405.27Zm-12.32,334.221c0-45.451,29.529-84.471,71.351-100.77,23.521,47.883,74.8,79.741,131.9,79.741S634.678,686.6,658.2,638.718c41.824,16.3,71.36,55.322,71.36,100.773v78.648H647.68V766.02c0-12.237-10.462-22.157-23.374-22.157s-23.374,9.92-23.374,22.157V985.658H323.059V739.491ZM647.677,985.655V862.45h81.879v123.2Z" transform="translate(1601.422 7751)" fill="#d2d2d2" stroke="#fff" stroke-width="1"/>
        <path id="Caminho_371" data-name="Caminho 371" d="M360.885,279.372a30.222,30.222,0,1,0,44.691-36.712c-11.888-8-27.991-6.141-38.162,3.748a30.738,30.738,0,0,0-6.528,32.964C361.655,281.182,360.124,277.518,360.885,279.372Z" transform="translate(1756.296 7860.343)" fill="#d2d2d2"/>
        <path id="Caminho_372" data-name="Caminho 372" d="M369.418,261.636a31.363,31.363,0,0,0-4.473-10.881c-15.249-22.313-50.981-14.451-55.027,12.363-3.679,24.356,23.308,42.95,44.767,30.707a30.443,30.443,0,0,0,14.733-32.19C369.056,259.7,369.817,263.611,369.418,261.636Z" transform="translate(1668.717 7860.522)" fill="#d2d2d2"/>
        <path id="Caminho_373" data-name="Caminho 373" d="M409.349,272.761a17.394,17.394,0,0,0-21.4,0,30.773,30.773,0,0,1-37.855,0,17.394,17.394,0,0,0-21.4,0c-5.912,4.907-5.912,12.863,0,17.771,11.116,9.232,25.723,13.848,40.327,13.848s29.211-4.616,40.327-13.848C415.262,285.624,415.262,277.67,409.349,272.761Z" transform="translate(1717.556 7985.033)" fill="#d2d2d2"/>
      </g>
    </g>
  </g>
</svg>
