<svg xmlns="http://www.w3.org/2000/svg" width="288.617" height="94.796" viewBox="0 0 288.617 94.796"><defs><style>.a,.e{fill:none;}.a,.b,.e{stroke:#fdfffc;}.b{fill:#779dff;}.c{fill:#fdfffc;}.d{fill:#22223b;}.e{stroke-linecap:round;stroke-linejoin:round;}</style></defs><g transform="translate(-0.5 -1.058)"><path class="a" d="M17.4,44.485A10.5,10.5,0,0,1,25.8,34.2L184.749,1.821A10.5,10.5,0,0,1,195,5.491l36.45,44.891A10.5,10.5,0,0,1,223.295,67.5H27.9A10.5,10.5,0,0,1,17.4,57Z"/><path class="b" d="M288.617,59.042a18.026,18.026,0,0,1-2.576,9.9A17.718,17.718,0,0,1,279.2,75c-5.738,3.065-13.458,4.346-21.388,5.4q-1.641.217-3.289.426c-6.808.871-13.569,1.736-19.015,3.611-5.367,1.847-9.563,4.712-11.278,9.6a10.821,10.821,0,0,0-2.615-5.027,18.3,18.3,0,0,0-7.574-4.575c-5.362-1.895-12.269-2.758-19.306-3.638q-1.581-.2-3.166-.4c-8.146-1.05-16.194-2.332-22.206-5.4a18.432,18.432,0,0,1-7.183-6.07,17.328,17.328,0,0,1-2.712-9.887c0-16.663,2.781-30.036,9.954-39.239,7.152-9.175,18.748-14.3,36.621-14.3s38.569,5.14,54.766,14.43S288.617,42.6,288.617,59.042Z"/><path class="c" d="M19.041,55.795,22.574,42.98h5.309L21.467,62H16.615L10.2,42.98h5.309Zm10.019-3.48a11.281,11.281,0,0,1,1.09-5.045,8,8,0,0,1,3.129-3.428,9.2,9.2,0,0,1,4.764-1.213,8.63,8.63,0,0,1,6.275,2.356,9.433,9.433,0,0,1,2.725,6.4l.035,1.3a9.973,9.973,0,0,1-2.443,7.031,8.507,8.507,0,0,1-6.557,2.637A8.563,8.563,0,0,1,31.5,59.715a10.138,10.138,0,0,1-2.443-7.172Zm5.08.369a7.133,7.133,0,0,0,1.02,4.148,3.68,3.68,0,0,0,5.8.018A7.8,7.8,0,0,0,42,52.314,7.019,7.019,0,0,0,40.961,48.2a3.373,3.373,0,0,0-2.918-1.459A3.311,3.311,0,0,0,35.16,48.2,7.843,7.843,0,0,0,34.141,52.684ZM55.568,62h-5.1V35h5.1ZM71.16,60.066a6.371,6.371,0,0,1-5.2,2.285,6.037,6.037,0,0,1-4.676-1.758,7.532,7.532,0,0,1-1.635-5.15V42.98h5.08V55.268q0,2.971,2.707,2.971a3.669,3.669,0,0,0,3.551-1.793V42.98h5.1V62H71.3ZM84.59,42.98l.158,2.2a6.64,6.64,0,0,1,5.467-2.549,5.519,5.519,0,0,1,4.5,1.775,8.283,8.283,0,0,1,1.512,5.309V62h-5.08V49.836a3.262,3.262,0,0,0-.7-2.338,3.124,3.124,0,0,0-2.338-.738,3.5,3.5,0,0,0-3.217,1.828V62h-5.08V42.98ZM106.176,38.3V42.98h3.252v3.727h-3.252V56.2a2.264,2.264,0,0,0,.4,1.512,2.031,2.031,0,0,0,1.547.457,8.1,8.1,0,0,0,1.494-.123v3.85a10.455,10.455,0,0,1-3.076.457q-5.344,0-5.449-5.4V46.707H98.318V42.98H101.1V38.3Zm17.1,23.7a5.667,5.667,0,0,1-.51-1.705,6.145,6.145,0,0,1-4.8,2.057,6.785,6.785,0,0,1-4.641-1.617,5.211,5.211,0,0,1-1.828-4.078,5.383,5.383,0,0,1,2.232-4.641,11.1,11.1,0,0,1,6.487-1.635h2.338v-1.09a3.109,3.109,0,0,0-.686-2.109,2.634,2.634,0,0,0-2.127-.791,3.062,3.062,0,0,0-2.021.615A2.1,2.1,0,0,0,117,48.693h-5.08a5.107,5.107,0,0,1,1.019-3.059,6.682,6.682,0,0,1,2.883-2.2,10.407,10.407,0,0,1,4.184-.809,8.239,8.239,0,0,1,5.572,1.775,6.141,6.141,0,0,1,2.074,4.957v8.244a9.1,9.1,0,0,0,.756,4.1V62Zm-4.2-3.533a4.438,4.438,0,0,0,2.074-.492,3.345,3.345,0,0,0,1.407-1.354v-3.27h-1.9q-3.815,0-4.06,2.637l-.018.3a2.035,2.035,0,0,0,.668,1.564A2.6,2.6,0,0,0,119.078,58.467Zm23.168-10.723a13.807,13.807,0,0,0-1.828-.141q-2.883,0-3.779,1.951V62h-5.08V42.98h4.8l.141,2.268a4.708,4.708,0,0,1,4.236-2.619,5.321,5.321,0,0,1,1.582.229ZM150.068,62h-5.1V42.98h5.1Zm-5.4-23.941a2.516,2.516,0,0,1,.756-1.881,3.308,3.308,0,0,1,4.166,0,2.674,2.674,0,0,1-.018,3.779,2.855,2.855,0,0,1-2.057.738,2.919,2.919,0,0,1-2.074-.738A2.51,2.51,0,0,1,144.672,38.059ZM165.291,62a5.667,5.667,0,0,1-.51-1.705,6.146,6.146,0,0,1-4.8,2.057,6.784,6.784,0,0,1-4.64-1.617,5.211,5.211,0,0,1-1.828-4.078,5.383,5.383,0,0,1,2.232-4.641,11.1,11.1,0,0,1,6.486-1.635h2.338v-1.09a3.108,3.108,0,0,0-.685-2.109,2.637,2.637,0,0,0-2.127-.791,3.063,3.063,0,0,0-2.022.615,2.1,2.1,0,0,0-.72,1.688h-5.081a5.1,5.1,0,0,1,1.02-3.059,6.682,6.682,0,0,1,2.883-2.2,10.405,10.405,0,0,1,4.183-.809,8.24,8.24,0,0,1,5.573,1.775,6.141,6.141,0,0,1,2.074,4.957v8.244a9.1,9.1,0,0,0,.756,4.1V62Zm-4.2-3.533a4.438,4.438,0,0,0,2.074-.492,3.337,3.337,0,0,0,1.406-1.354v-3.27h-1.9q-3.814,0-4.061,2.637l-.017.3a2.032,2.032,0,0,0,.668,1.564A2.593,2.593,0,0,0,161.09,58.467Z"/><path class="d" d="M178.246,42.98l.158,2.2a6.642,6.642,0,0,1,5.467-2.549,5.518,5.518,0,0,1,4.5,1.775,8.289,8.289,0,0,1,1.512,5.309V62H184.8V49.836a3.266,3.266,0,0,0-.7-2.338,3.125,3.125,0,0,0-2.338-.738,3.5,3.5,0,0,0-3.217,1.828V62h-5.08V42.98Zm14.713,9.369a11.5,11.5,0,0,1,1.986-7.084,6.5,6.5,0,0,1,5.467-2.637A5.825,5.825,0,0,1,205,44.7V35h5.1V62H205.51l-.246-2.021a5.98,5.98,0,0,1-4.887,2.373,6.489,6.489,0,0,1-5.4-2.637A11.912,11.912,0,0,1,192.959,52.35Zm5.08.369a7.488,7.488,0,0,0,.932,4.1,3.036,3.036,0,0,0,2.707,1.424A3.4,3.4,0,0,0,205,56.252V48.746a3.352,3.352,0,0,0-3.287-1.986Q198.04,46.76,198.039,52.719Zm15.205-.4a11.274,11.274,0,0,1,1.09-5.045,7.988,7.988,0,0,1,3.129-3.428,9.2,9.2,0,0,1,4.764-1.213,8.63,8.63,0,0,1,6.275,2.356,9.435,9.435,0,0,1,2.725,6.4l.035,1.3a9.973,9.973,0,0,1-2.444,7.031,9.492,9.492,0,0,1-13.131,0,10.142,10.142,0,0,1-2.443-7.172Zm5.08.369a7.131,7.131,0,0,0,1.02,4.148,3.679,3.679,0,0,0,5.8.018,7.8,7.8,0,0,0,1.038-4.535,7.014,7.014,0,0,0-1.038-4.113,3.372,3.372,0,0,0-2.917-1.459,3.31,3.31,0,0,0-2.883,1.459A7.841,7.841,0,0,0,218.324,52.684Zm26.367,4.06a1.616,1.616,0,0,0-.931-1.459,10.124,10.124,0,0,0-2.953-.967q-6.786-1.424-6.786-5.766a5.211,5.211,0,0,1,2.092-4.219,8.479,8.479,0,0,1,5.5-1.705,9.081,9.081,0,0,1,5.783,1.705,5.364,5.364,0,0,1,2.18,4.43H244.5a2.427,2.427,0,0,0-.7-1.793,2.953,2.953,0,0,0-2.2-.721,3.042,3.042,0,0,0-1.987.58,1.833,1.833,0,0,0-.7,1.476,1.59,1.59,0,0,0,.791,1.371,8.644,8.644,0,0,0,2.707.9,21.378,21.378,0,0,1,3.2.844q4.026,1.476,4.026,5.115a4.982,4.982,0,0,1-2.233,4.219,9.667,9.667,0,0,1-5.765,1.6,10.208,10.208,0,0,1-4.254-.844,7.233,7.233,0,0,1-2.9-2.338,5.471,5.471,0,0,1-1.054-3.217h4.816a2.653,2.653,0,0,0,1,2.074,3.973,3.973,0,0,0,2.5.721,3.679,3.679,0,0,0,2.2-.545A1.739,1.739,0,0,0,244.691,56.744Z"/><path class="e" d="M1,62H199.7"/></g></svg>